<?xml version="1.0" encoding="UTF-8" standalone="no"?>
<svg
   xmlns:dc="http://purl.org/dc/elements/1.1/"
   xmlns:cc="http://creativecommons.org/ns#"
   xmlns:rdf="http://www.w3.org/1999/02/22-rdf-syntax-ns#"
   xmlns:svg="http://www.w3.org/2000/svg"
   xmlns="http://www.w3.org/2000/svg"
   xmlns:sodipodi="http://sodipodi.sourceforge.net/DTD/sodipodi-0.dtd"
   xmlns:inkscape="http://www.inkscape.org/namespaces/inkscape"
   aria-hidden="true"
   focusable="false"
   data-prefix="fas"
   data-icon="car-crash"
   class="svg-inline--fa fa-car-crash fa-w-20"
   role="img"
   viewBox="0 0 512 512"
   version="1.1"
   id="svg4"
   sodipodi:docname="car-crash-solid.svg"
   width="512"
   height="512"
   inkscape:version="0.92.2 2405546, 2018-03-11"
   inkscape:export-filename="/home/fin/Desktop/kraftfahrzeug.png"
   inkscape:export-xdpi="96"
   inkscape:export-ydpi="96">
  <metadata
     id="metadata10">
    <rdf:RDF>
      <cc:Work
         rdf:about="">
        <dc:format>image/svg+xml</dc:format>
        <dc:type
           rdf:resource="http://purl.org/dc/dcmitype/StillImage" />
        <dc:title></dc:title>
      </cc:Work>
    </rdf:RDF>
  </metadata>
  <defs
     id="defs8" />
  <sodipodi:namedview
     pagecolor="#ffffff"
     bordercolor="#666666"
     borderopacity="1"
     objecttolerance="10"
     gridtolerance="10"
     guidetolerance="10"
     inkscape:pageopacity="0"
     inkscape:pageshadow="2"
     inkscape:window-width="1440"
     inkscape:window-height="1555"
     id="namedview6"
     showgrid="false"
     inkscape:snap-page="true"
     inkscape:zoom="0.921875"
     inkscape:cx="342.66813"
     inkscape:cy="223.96849"
     inkscape:window-x="1440"
     inkscape:window-y="30"
     inkscape:window-maximized="0"
     inkscape:current-layer="svg4" />
  <path
     d="m 114.9907,227.7562 -9.96998,37.22288 c -2.41624,9.03078 -2.91393,18.37464 -1.9346,27.6061 l -28.256313,23.2633 c -5.273978,4.3428 -13.09263,-0.34518 -11.736005,-7.04 L 75.48805,247.25466 c 0.850901,-4.22239 -2.135278,-8.25213 -6.42189,-8.66152 L 6.565111,232.53248 c -6.79917655,-0.65824 -9.0147288,-9.49637 -3.3233283,-13.27726 L 55.540053,184.49674 c 3.580204,-2.38413 4.318721,-7.34504 1.589418,-10.66837 l -39.904022,-48.4933 c -4.342803,-5.27397 0.345177,-13.0846 7.048025,-11.736 l 61.55382,12.39425 c 4.222393,0.8509 8.252129,-2.13528 8.669552,-6.42189 l 6.060664,-62.501051 c 0.65824,-6.807204 9.49637,-9.014729 13.28528,-3.323329 l 34.75848,52.29024 c 2.38413,3.58021 7.34504,4.31873 10.66837,1.58942 l 48.48527,-39.904021 c 5.27398,-4.342803 13.0846,0.345177 11.73601,7.039998 l -9.09501,45.081673 c -2.17541,2.44834 -4.35885,4.88866 -6.34964,7.54572 l -25.80797,34.49358 -8.59731,11.49518 c -26.27356,7.03197 -47.50593,27.71849 -54.65029,54.37736 z"
     id="path4566"
     style="fill:#ff5722;fill-opacity:1;stroke-width:0.80273628"
     inkscape:connector-curvature="0" />
  <path
     id="path2"
     d="m 453.28787,305.09984 c -14.89076,-3.9896 -43.18722,12.28989 -47.16076,27.12446 -3.97355,14.8426 19.01682,18.35055 33.90758,22.34015 14.89076,3.9896 27.46161,-3.24305 31.44318,-18.08565 3.97355,-14.83456 -3.29925,-27.38936 -18.19,-31.37896 z m -14.8426,-43.86954 -5.1054,-42.77782 c -0.46559,-3.90932 -1.51717,-7.65007 -3.06645,-11.12592 -4.65587,-10.42755 -13.80707,-18.47096 -25.22198,-21.52939 l -98.47969,-26.38594 a 38.537765,38.537765 0 0 0 -40.82717,14.13619 l -25.80797,34.49357 138.07065,36.99009 z m -233.2832,-22.61308 c -14.89075,-3.9896 -27.46161,3.24306 -31.44318,18.08565 -3.98157,14.84259 3.29925,27.38936 18.18198,31.37896 14.89076,3.9896 36.55661,12.45044 40.53016,-2.39215 3.98157,-14.8426 -12.38623,-43.08286 -27.26896,-47.07246 z M 512,334.12679 l -9.96998,37.21485 c -2.51257,9.37596 -7.52967,17.34713 -14.08803,23.56834 a 53.683793,53.683793 0 0 1 -7.03197,5.61915 l -11.23028,41.92692 c -0.91512,3.42769 -2.48848,6.50217 -4.53546,9.13514 -6.15699,7.89893 -16.64875,11.78417 -26.92377,9.03078 l -24.81258,-6.64665 C 399.70522,450.30681 391.5735,436.21879 395.242,422.51608 l 6.64666,-24.81258 -198.50063,-53.18931 -6.64666,24.81258 c -3.66851,13.70271 -17.75653,21.83443 -31.45924,18.16593 l -24.81258,-6.64666 c -10.27502,-2.75339 -17.41937,-11.36675 -18.80008,-21.28054 -0.45756,-3.30727 -0.28096,-6.75904 0.63416,-10.1787 l 11.23028,-41.92691 a 53.478293,53.478293 0 0 1 -3.28319,-8.3886 c -2.56875,-8.66152 -2.92999,-18.07762 -0.41742,-27.45358 l 9.96998,-37.22288 c 4.26253,-15.89418 15.54098,-27.95931 29.61295,-33.8835 a 51.644843,51.644843 0 0 1 14.84259,-3.78892 l 14.55361,-19.4503 25.80797,-34.49358 c 2.76944,-3.70061 5.77168,-7.14435 8.99065,-10.30713 6.42189,-6.33359 13.6706,-11.59151 21.46517,-15.66138 3.9013,-2.03896 7.93906,-3.78089 12.08118,-5.20976 8.29226,-2.8738 17.00998,-4.51941 25.88022,-4.84853 8.87023,-0.32912 17.90904,0.65824 26.83547,3.0504 l 98.47969,26.38594 c 8.92643,2.39215 17.24278,6.05263 24.76442,10.78075 a 89.192031,89.192031 0 0 1 27.84692,27.6944 c 7.08013,11.14198 11.75206,23.95365 13.38964,37.72058 l 5.1054,42.77782 2.88183,24.12222 a 51.768465,51.768465 0 0 1 18.25422,24.0259 c 3.52401,9.53651 4.24648,20.22093 1.40479,30.81705 z"
     style="fill:#3f51b5;fill-opacity:1;stroke-width:0.80273628"
     inkscape:connector-curvature="0" />
</svg>
